<svg height="512" viewBox="0 0 128 128" width="512" xmlns="http://www.w3.org/2000/svg"><g id="Circle_Grid" data-name="Circle Grid"><circle cx="64" cy="64" fill="#3b5059" r="64"/></g><g id="icon"><g fill="#69b0ee"><path d="m41.479 54.014 2.67-2.671-17.695-17.695-1.967 1.968a18.482 18.482 0 0 0 -5.42 11.417c-.5 5.934 1.831 13.013 5.507 20.129a79.343 79.343 0 0 0 33.926 33.945c7.124 3.688 14.21 6.023 20.15 5.507a18.363 18.363 0 0 0 11.415-5.414l1.968-1.968-17.7-17.7-2.665 2.668a7.445 7.445 0 0 1 -10.527 0l-19.662-19.66a7.442 7.442 0 0 1 0-10.526z"/><path d="m90.6 100.651 1.436-1.436a3.594 3.594 0 0 0 0-5.083l-12.61-12.612a3.6 3.6 0 0 0 -5.084 0l-1.435 1.436z"/><path d="m42.718 52.767 1.435-1.436a3.594 3.594 0 0 0 0-5.083l-12.611-12.612a3.6 3.6 0 0 0 -5.084 0l-1.435 1.436z"/></g><path d="m103 36.554v18.4a7.235 7.235 0 0 1 -7.239 7.239h-17.517l-10.873 9.83v-9.83h-5.39a7.238 7.238 0 0 1 -7.239-7.239v-18.4a7.242 7.242 0 0 1 7.239-7.239h33.78a7.238 7.238 0 0 1 7.239 7.239z" fill="#eeefee"/><rect fill="#bbbbcd" height="2.163" rx="1.081" width="36.46" x="60.641" y="37.025"/><rect fill="#bbbbcd" height="2.163" rx="1.081" width="36.46" x="60.641" y="44.672"/><rect fill="#bbbbcd" height="2.163" rx="1.081" width="36.46" x="60.641" y="52.32"/></g></svg>